<?xml version="1.0" encoding="UTF-8"?>
<svg version="1.1" xmlns="http://www.w3.org/2000/svg" width="548" height="452">
<path d="M0 0 C180.84 0 361.68 0 548 0 C548 149.16 548 298.32 548 452 C367.16 452 186.32 452 0 452 C0 302.84 0 153.68 0 0 Z " fill="#FEFEFE" transform="translate(0,0)"/>
<path d="M0 0 C0.61166016 0.33435059 1.22332031 0.66870117 1.85351562 1.01318359 C27.67251694 15.1492879 48.38304335 36.61265424 63 62 C63.65742188 63.12664062 64.31484375 64.25328125 64.9921875 65.4140625 C83.24230476 97.55148933 88.30782445 133.89141127 88.6875 170.3125 C88.72033375 172.6067738 88.75338407 174.90104451 88.78662109 177.1953125 C89.10956531 202.16209281 89.10189098 227.13387913 89.12204361 252.10232162 C89.12498597 255.48387546 89.12915288 258.86542634 89.13339233 262.24697876 C89.13934465 267.65392819 89.13918131 273.06084787 89.13450813 278.46779823 C89.13339629 280.47652475 89.13387317 282.48525292 89.13610649 284.4939785 C89.13870639 287.29353868 89.13481589 290.09302337 89.12939453 292.89257812 C89.13243607 294.07711059 89.13243607 294.07711059 89.13553905 295.28557301 C89.10681647 303.24491894 88.49973564 311.00422976 88 319 C65.89 319 43.78 319 21 319 C19.99688869 315.99066606 19.87330563 313.99435731 19.87060547 310.84985352 C19.86749359 309.7891011 19.86438171 308.72834869 19.86117554 307.63545227 C19.86315948 306.47829208 19.86514343 305.3211319 19.8671875 304.12890625 C19.86586823 302.92151291 19.86454895 301.71411957 19.8631897 300.47013855 C19.86159243 297.18518452 19.86497973 293.90028801 19.87142944 290.61534119 C19.87501042 288.55650696 19.8766211 286.49767973 19.87768555 284.43884277 C19.88853076 267.5368815 20.04047045 250.64647047 20.5 233.75 C20.91773094 217.97813253 21.16744615 202.20931688 21.23217773 186.4317627 C21.24381201 184.0283284 21.26066508 181.62491209 21.28344727 179.22155762 C21.62061837 141.79954706 16.96142715 104.80162465 -9.56640625 76.43798828 C-20.72042697 65.24977608 -34.33378399 57.69076352 -49.1875 52.625 C-50.23695801 52.26668091 -50.23695801 52.26668091 -51.30761719 51.90112305 C-61.9883213 48.48710344 -72.64970386 47.63396874 -83.8125 47.6875 C-85.04718018 47.69313965 -86.28186035 47.6987793 -87.55395508 47.70458984 C-96.41490049 47.82257224 -104.47388446 48.426628 -113 51 C-113.66999023 51.19867676 -114.33998047 51.39735352 -115.03027344 51.60205078 C-129.81041455 56.08444251 -142.2290867 62.90473517 -154 73 C-154.99193359 73.75796875 -154.99193359 73.75796875 -156.00390625 74.53125 C-172.7341124 87.78022134 -182.7709092 110.61090969 -186.578125 131.11328125 C-189.89598449 161.68059786 -183.62325451 192.23969055 -164.5859375 216.85546875 C-152.03115125 232.38025554 -137.1128736 241.5995428 -118 247 C-118.07001221 245.86071045 -118.14002441 244.7214209 -118.2121582 243.54760742 C-119.18170618 226.19582116 -119.18756458 208.84670432 -119.18530273 191.47387695 C-119.18520012 187.14621376 -119.19899642 182.81871095 -119.21607494 178.49108601 C-119.22724133 175.11166151 -119.22922074 171.73227575 -119.22869301 168.3528347 C-119.22986056 166.75704571 -119.23421207 165.16125529 -119.24202538 163.565485 C-119.34054824 141.42535436 -119.34054824 141.42535436 -114.625 132.625 C-114.22539062 131.85414063 -113.82578125 131.08328125 -113.4140625 130.2890625 C-110.44840976 125.48830973 -107.42212491 122.30230474 -102.625 119.3125 C-101.70976562 118.73113281 -100.79453125 118.14976562 -99.8515625 117.55078125 C-91.18085475 112.83534156 -82.26558021 112.78732337 -72.875 115.4375 C-64.25258236 118.66949403 -57.96641154 124.23650492 -54 132.5625 C-48.65194196 146.21511296 -48.83213056 160.44293383 -48.91015625 174.93359375 C-48.91426974 176.35542218 -48.91808435 177.7772515 -48.92164612 179.19908142 C-48.93796895 184.46611406 -48.96905514 189.73303632 -49 195 C-49.01276236 197.28867591 -49.02551836 199.57735186 -49.03826904 201.86602783 C-49.12265682 216.65749293 -49.22451306 231.44877454 -49.33936119 246.24003029 C-49.35035088 247.65619528 -49.36133529 249.07236032 -49.37231445 250.48852539 C-49.37776767 251.19183278 -49.38322089 251.89514018 -49.38883936 252.61975992 C-49.43336438 258.41290592 -49.4730866 264.20607871 -49.51199192 269.99926478 C-49.55015453 275.6424102 -49.5920738 281.2855199 -49.63687855 286.92861646 C-49.66336223 290.27546892 -49.68773563 293.62230275 -49.70907402 296.96919441 C-49.73299074 300.66058703 -49.76303833 304.35187957 -49.79467773 308.04321289 C-49.8004332 309.14569366 -49.80618866 310.24817444 -49.81211853 311.38406372 C-49.82190735 312.37965805 -49.83169617 313.37525238 -49.84178162 314.40101624 C-49.84823417 315.27035325 -49.85468672 316.13969027 -49.8613348 317.03537083 C-50 319 -50 319 -51 320 C-61.67606451 322.46788041 -72.54556632 322.40241003 -83.4375 322.375 C-84.3246167 322.3737915 -85.2117334 322.37258301 -86.12573242 322.37133789 C-114.63292901 322.26597459 -140.93505564 315.88317519 -166 302 C-167.20918503 301.35592456 -168.41881949 300.71269216 -169.62890625 300.0703125 C-182.05085684 293.35487532 -192.77512653 284.69972892 -203 275 C-203.49467773 274.53787109 -203.98935547 274.07574219 -204.49902344 273.59960938 C-229.12752934 250.47154783 -244.80285915 220.5957677 -253 188 C-253.17934082 187.29633301 -253.35868164 186.59266602 -253.54345703 185.86767578 C-256.34007745 174.20074193 -256.30644313 162.30433977 -256.375 150.375 C-256.3830365 149.59448273 -256.391073 148.81396545 -256.39935303 148.00979614 C-256.48767101 136.68710303 -255.35171284 126.07313306 -253 115 C-252.80664062 114.08460449 -252.61328125 113.16920898 -252.4140625 112.22607422 C-251.92403288 110.05271918 -251.38873045 107.90197175 -250.8125 105.75 C-250.6052832 104.9760791 -250.39806641 104.2021582 -250.18457031 103.40478516 C-244.28917784 82.23804245 -235.18604651 62.58912004 -222 45 C-221.33871094 44.11441406 -220.67742187 43.22882813 -219.99609375 42.31640625 C-196.41254697 12.19927726 -163.84938357 -7.57506151 -127 -17 C-126.21367187 -17.21172852 -125.42734375 -17.42345703 -124.6171875 -17.64160156 C-83.80736184 -28.26495139 -36.32923905 -20.65251296 0 0 Z " fill="#0B15DD" transform="translate(273,89)"/>
<path d="M0 0 C8.15455286 -0.06988213 16.30897808 -0.12300335 24.46375751 -0.15543652 C28.25141888 -0.17101229 32.03887356 -0.19210008 35.82641602 -0.22631836 C39.48986495 -0.25920385 43.1531166 -0.27691363 46.81670189 -0.28463173 C48.20597623 -0.29012342 49.59524126 -0.30084541 50.98443031 -0.31719017 C59.5059005 -0.41335339 66.9193479 0.2397626 75 3 C75.8240181 3.27059738 76.64803619 3.54119476 77.49702454 3.81999207 C99.27298615 11.0719115 119.72265975 21.78203313 137 37 C137.87398437 37.76441406 138.74796875 38.52882812 139.6484375 39.31640625 C142.12692361 41.51578356 144.57050397 43.74673684 147 46 C147.88751953 46.80630859 147.88751953 46.80630859 148.79296875 47.62890625 C175.06515918 72.52820312 191.10162572 108.64824821 195.62060547 144.0546875 C195.89602751 146.19284159 196.19504043 148.32799864 196.50830078 150.4609375 C198.41179717 164.05176775 198.46368273 177.6728085 198.625 191.375 C198.64321356 192.72064647 198.66175252 194.06628857 198.68060303 195.41192627 C199.0407533 221.38448325 199.10388102 247.35926204 199.12248993 273.333992 C199.12498394 276.35553704 199.12894475 279.37707748 199.13311768 282.39862061 C199.13906009 287.22018467 199.13898957 292.04171599 199.13444519 296.86328125 C199.1333799 298.63974993 199.13386715 300.41622042 199.13612366 302.19268799 C199.13873781 304.66803955 199.13480572 307.14330683 199.12939453 309.61865234 C199.13142191 310.30444555 199.13344929 310.99023876 199.1355381 311.69681358 C199.10128237 320.16441005 198.47154363 328.51221458 198 337 C175.89 337 153.78 337 131 337 C129.87470823 324.6217905 129.87470823 324.6217905 129.87060547 319.54833984 C129.86745331 318.40859711 129.86430115 317.26885437 129.86105347 316.09457397 C129.86408981 314.29592392 129.86408981 314.29592392 129.8671875 312.4609375 C129.86623077 311.18183502 129.86527405 309.90273254 129.86428833 308.58486938 C129.86282332 305.88371562 129.86492211 303.18259516 129.86962891 300.48144531 C129.87524622 297.10112471 129.8720003 293.72088429 129.86617947 290.34056664 C129.84631929 276.65727934 130.00848443 263.01669383 130.6348114 249.34759521 C131.14580112 237.69737942 131.18606007 226.04957768 131.18530273 214.38964844 C131.18749437 210.63465099 131.20576612 206.87994621 131.22460938 203.125 C131.31353679 165.22506158 128.79350398 127.48594966 112 93 C111.68691895 92.34402832 111.37383789 91.68805664 111.05126953 91.01220703 C103.91952048 76.20882534 93.94048258 63.36079366 82.53515625 51.58642578 C81.44564865 50.46053196 80.36299442 49.32798814 79.28515625 48.19091797 C59.06218737 26.88612898 36.06258108 15.79441282 8.8581543 5.19165039 C5.82816465 3.92835668 2.91966414 2.49890695 0 1 C0 0.67 0 0.34 0 0 Z " fill="#101ECE" transform="translate(330,71)"/>
</svg>
